<mxfile host="app.diagrams.net" modified="2022-09-08T14:27:56.202Z" agent="5.0 (Macintosh; Intel Mac OS X 10_15_7) AppleWebKit/605.1.15 (KHTML, like Gecko) Version/15.6.1 Safari/605.1.15" etag="5fn4-i1k-BFZXZ0THr8N" version="20.3.0" type="github">
  <diagram id="IdlpWl6zbyqnxrVqbU_i" name="Page-1">
    <mxGraphModel dx="303" dy="217" grid="1" gridSize="10" guides="1" tooltips="1" connect="1" arrows="1" fold="1" page="1" pageScale="1" pageWidth="827" pageHeight="1169" math="1" shadow="0">
      <root>
        <mxCell id="0" />
        <mxCell id="1" parent="0" />
        <mxCell id="WMP9rHR9NZPAnHK2ZveY-2" value="" style="curved=1;endArrow=none;html=1;rounded=0;endFill=0;" parent="1" edge="1">
          <mxGeometry width="50" height="50" relative="1" as="geometry">
            <mxPoint x="120" y="160" as="sourcePoint" />
            <mxPoint x="720" y="120" as="targetPoint" />
            <Array as="points">
              <mxPoint x="280" y="160" />
              <mxPoint x="420" y="150" />
              <mxPoint x="560" y="120" />
            </Array>
          </mxGeometry>
        </mxCell>
        <mxCell id="0pmqVzATzi7T12V1UpiU-1" value="" style="curved=1;endArrow=none;html=1;rounded=0;endFill=0;" edge="1" parent="1">
          <mxGeometry width="50" height="50" relative="1" as="geometry">
            <mxPoint x="120" y="240" as="sourcePoint" />
            <mxPoint x="720" y="280" as="targetPoint" />
            <Array as="points">
              <mxPoint x="280" y="240" />
              <mxPoint x="420" y="250" />
              <mxPoint x="560" y="280" />
            </Array>
          </mxGeometry>
        </mxCell>
        <mxCell id="0pmqVzATzi7T12V1UpiU-4" value="" style="endArrow=none;html=1;rounded=0;" edge="1" parent="1">
          <mxGeometry width="50" height="50" relative="1" as="geometry">
            <mxPoint x="440" y="255" as="sourcePoint" />
            <mxPoint x="440" y="145" as="targetPoint" />
          </mxGeometry>
        </mxCell>
        <mxCell id="0pmqVzATzi7T12V1UpiU-7" value="" style="rounded=0;whiteSpace=wrap;html=1;fillColor=none;" vertex="1" parent="1">
          <mxGeometry x="120" y="160" width="40" height="80" as="geometry" />
        </mxCell>
        <mxCell id="0pmqVzATzi7T12V1UpiU-12" value="" style="endArrow=classic;html=1;rounded=0;exitX=0;exitY=0.25;exitDx=0;exitDy=0;entryX=1;entryY=0.25;entryDx=0;entryDy=0;" edge="1" parent="1" source="0pmqVzATzi7T12V1UpiU-7" target="0pmqVzATzi7T12V1UpiU-7">
          <mxGeometry width="50" height="50" relative="1" as="geometry">
            <mxPoint x="210" y="195" as="sourcePoint" />
            <mxPoint x="260" y="145" as="targetPoint" />
          </mxGeometry>
        </mxCell>
        <mxCell id="0pmqVzATzi7T12V1UpiU-13" value="" style="endArrow=classic;html=1;rounded=0;exitX=0;exitY=0.25;exitDx=0;exitDy=0;entryX=1;entryY=0.25;entryDx=0;entryDy=0;" edge="1" parent="1">
          <mxGeometry width="50" height="50" relative="1" as="geometry">
            <mxPoint x="120" y="199.83" as="sourcePoint" />
            <mxPoint x="160" y="199.83" as="targetPoint" />
          </mxGeometry>
        </mxCell>
        <mxCell id="0pmqVzATzi7T12V1UpiU-14" value="" style="endArrow=classic;html=1;rounded=0;exitX=0;exitY=0.25;exitDx=0;exitDy=0;entryX=1;entryY=0.25;entryDx=0;entryDy=0;" edge="1" parent="1">
          <mxGeometry width="50" height="50" relative="1" as="geometry">
            <mxPoint x="120" y="220.00000000000009" as="sourcePoint" />
            <mxPoint x="160" y="220.00000000000009" as="targetPoint" />
          </mxGeometry>
        </mxCell>
        <mxCell id="0pmqVzATzi7T12V1UpiU-15" value="" style="endArrow=classic;html=1;rounded=0;" edge="1" parent="1">
          <mxGeometry width="50" height="50" relative="1" as="geometry">
            <mxPoint x="400" y="170" as="sourcePoint" />
            <mxPoint x="440" y="160" as="targetPoint" />
          </mxGeometry>
        </mxCell>
        <mxCell id="0pmqVzATzi7T12V1UpiU-16" value="" style="endArrow=classic;html=1;rounded=0;exitX=0;exitY=0.25;exitDx=0;exitDy=0;entryX=1;entryY=0.25;entryDx=0;entryDy=0;" edge="1" parent="1">
          <mxGeometry width="50" height="50" relative="1" as="geometry">
            <mxPoint x="400" y="190.00000000000014" as="sourcePoint" />
            <mxPoint x="440" y="190.00000000000014" as="targetPoint" />
          </mxGeometry>
        </mxCell>
        <mxCell id="0pmqVzATzi7T12V1UpiU-17" value="" style="endArrow=classic;html=1;rounded=0;exitX=0;exitY=0.25;exitDx=0;exitDy=0;entryX=1;entryY=0.25;entryDx=0;entryDy=0;" edge="1" parent="1">
          <mxGeometry width="50" height="50" relative="1" as="geometry">
            <mxPoint x="400" y="210.00000000000017" as="sourcePoint" />
            <mxPoint x="440" y="210.00000000000017" as="targetPoint" />
          </mxGeometry>
        </mxCell>
        <mxCell id="0pmqVzATzi7T12V1UpiU-18" value="" style="endArrow=classic;html=1;rounded=0;" edge="1" parent="1">
          <mxGeometry width="50" height="50" relative="1" as="geometry">
            <mxPoint x="400" y="230" as="sourcePoint" />
            <mxPoint x="440" y="240" as="targetPoint" />
          </mxGeometry>
        </mxCell>
        <mxCell id="0pmqVzATzi7T12V1UpiU-19" value="" style="endArrow=none;html=1;rounded=0;" edge="1" parent="1">
          <mxGeometry width="50" height="50" relative="1" as="geometry">
            <mxPoint x="680" y="280" as="sourcePoint" />
            <mxPoint x="680" y="120" as="targetPoint" />
          </mxGeometry>
        </mxCell>
        <mxCell id="0pmqVzATzi7T12V1UpiU-21" value="" style="endArrow=none;html=1;rounded=0;" edge="1" parent="1">
          <mxGeometry width="50" height="50" relative="1" as="geometry">
            <mxPoint x="720" y="280" as="sourcePoint" />
            <mxPoint x="720" y="120" as="targetPoint" />
          </mxGeometry>
        </mxCell>
        <mxCell id="0pmqVzATzi7T12V1UpiU-22" value="" style="endArrow=classic;html=1;rounded=0;exitX=0;exitY=0.25;exitDx=0;exitDy=0;entryX=1;entryY=0.25;entryDx=0;entryDy=0;" edge="1" parent="1">
          <mxGeometry width="50" height="50" relative="1" as="geometry">
            <mxPoint x="680" y="140.00000000000017" as="sourcePoint" />
            <mxPoint x="720" y="140.00000000000017" as="targetPoint" />
          </mxGeometry>
        </mxCell>
        <mxCell id="0pmqVzATzi7T12V1UpiU-23" value="" style="endArrow=classic;html=1;rounded=0;exitX=0;exitY=0.25;exitDx=0;exitDy=0;entryX=1;entryY=0.25;entryDx=0;entryDy=0;" edge="1" parent="1">
          <mxGeometry width="50" height="50" relative="1" as="geometry">
            <mxPoint x="680" y="160.00000000000017" as="sourcePoint" />
            <mxPoint x="720" y="160.00000000000017" as="targetPoint" />
          </mxGeometry>
        </mxCell>
        <mxCell id="0pmqVzATzi7T12V1UpiU-24" value="" style="endArrow=classic;html=1;rounded=0;exitX=0;exitY=0.25;exitDx=0;exitDy=0;entryX=1;entryY=0.25;entryDx=0;entryDy=0;" edge="1" parent="1">
          <mxGeometry width="50" height="50" relative="1" as="geometry">
            <mxPoint x="680" y="180.00000000000017" as="sourcePoint" />
            <mxPoint x="720" y="180.00000000000017" as="targetPoint" />
          </mxGeometry>
        </mxCell>
        <mxCell id="0pmqVzATzi7T12V1UpiU-25" value="" style="endArrow=classic;html=1;rounded=0;exitX=0;exitY=0.25;exitDx=0;exitDy=0;entryX=1;entryY=0.25;entryDx=0;entryDy=0;" edge="1" parent="1">
          <mxGeometry width="50" height="50" relative="1" as="geometry">
            <mxPoint x="680" y="200.00000000000017" as="sourcePoint" />
            <mxPoint x="720" y="200.00000000000017" as="targetPoint" />
          </mxGeometry>
        </mxCell>
        <mxCell id="0pmqVzATzi7T12V1UpiU-26" value="" style="endArrow=classic;html=1;rounded=0;exitX=0;exitY=0.25;exitDx=0;exitDy=0;entryX=1;entryY=0.25;entryDx=0;entryDy=0;" edge="1" parent="1">
          <mxGeometry width="50" height="50" relative="1" as="geometry">
            <mxPoint x="680" y="220.00000000000017" as="sourcePoint" />
            <mxPoint x="720" y="220.00000000000017" as="targetPoint" />
          </mxGeometry>
        </mxCell>
        <mxCell id="0pmqVzATzi7T12V1UpiU-27" value="" style="endArrow=classic;html=1;rounded=0;exitX=0;exitY=0.25;exitDx=0;exitDy=0;entryX=1;entryY=0.25;entryDx=0;entryDy=0;" edge="1" parent="1">
          <mxGeometry width="50" height="50" relative="1" as="geometry">
            <mxPoint x="680" y="240.00000000000017" as="sourcePoint" />
            <mxPoint x="720" y="240.00000000000017" as="targetPoint" />
          </mxGeometry>
        </mxCell>
        <mxCell id="0pmqVzATzi7T12V1UpiU-28" value="" style="endArrow=classic;html=1;rounded=0;exitX=0;exitY=0.25;exitDx=0;exitDy=0;entryX=1;entryY=0.25;entryDx=0;entryDy=0;" edge="1" parent="1">
          <mxGeometry width="50" height="50" relative="1" as="geometry">
            <mxPoint x="680" y="260.00000000000017" as="sourcePoint" />
            <mxPoint x="720" y="260.00000000000017" as="targetPoint" />
          </mxGeometry>
        </mxCell>
        <mxCell id="0pmqVzATzi7T12V1UpiU-31" value="&lt;font style=&quot;font-size: 14px;&quot;&gt;\begin{equation}&lt;br style=&quot;font-size: 14px;&quot;&gt;v_0&lt;br style=&quot;font-size: 14px;&quot;&gt;\end{equation}&lt;/font&gt;" style="text;html=1;align=center;verticalAlign=middle;resizable=0;points=[];autosize=1;strokeColor=none;fillColor=none;" vertex="1" parent="1">
          <mxGeometry x="80" y="110" width="120" height="60" as="geometry" />
        </mxCell>
        <mxCell id="0pmqVzATzi7T12V1UpiU-35" value="&lt;font style=&quot;font-size: 14px;&quot;&gt;\begin{equation}&lt;br style=&quot;font-size: 14px;&quot;&gt;v&lt;br style=&quot;font-size: 14px;&quot;&gt;\end{equation}&lt;/font&gt;" style="text;html=1;align=center;verticalAlign=middle;resizable=0;points=[];autosize=1;strokeColor=none;fillColor=none;" vertex="1" parent="1">
          <mxGeometry x="339" y="106" width="120" height="60" as="geometry" />
        </mxCell>
        <mxCell id="0pmqVzATzi7T12V1UpiU-36" value="&lt;font style=&quot;font-size: 14px;&quot;&gt;\begin{equation}&lt;br style=&quot;font-size: 14px;&quot;&gt;v_1&lt;br style=&quot;font-size: 14px;&quot;&gt;\end{equation}&lt;/font&gt;" style="text;html=1;align=center;verticalAlign=middle;resizable=0;points=[];autosize=1;strokeColor=none;fillColor=none;" vertex="1" parent="1">
          <mxGeometry x="620" y="73" width="120" height="60" as="geometry" />
        </mxCell>
        <mxCell id="0pmqVzATzi7T12V1UpiU-37" value="" style="endArrow=none;html=1;rounded=0;dashed=1;" edge="1" parent="1">
          <mxGeometry width="50" height="50" relative="1" as="geometry">
            <mxPoint x="399.77" y="250" as="sourcePoint" />
            <mxPoint x="399.77" y="150" as="targetPoint" />
          </mxGeometry>
        </mxCell>
        <mxCell id="0pmqVzATzi7T12V1UpiU-38" value="" style="group" vertex="1" connectable="0" parent="1">
          <mxGeometry x="390" y="151" width="30" height="98" as="geometry" />
        </mxCell>
        <mxCell id="0pmqVzATzi7T12V1UpiU-8" value="" style="ellipse;whiteSpace=wrap;html=1;fillColor=none;" vertex="1" parent="0pmqVzATzi7T12V1UpiU-38">
          <mxGeometry y="44" width="30" height="10" as="geometry" />
        </mxCell>
        <mxCell id="0pmqVzATzi7T12V1UpiU-9" value="" style="ellipse;whiteSpace=wrap;html=1;fillColor=none;" vertex="1" parent="0pmqVzATzi7T12V1UpiU-38">
          <mxGeometry x="5" width="10" height="44" as="geometry" />
        </mxCell>
        <mxCell id="0pmqVzATzi7T12V1UpiU-10" value="" style="ellipse;whiteSpace=wrap;html=1;fillColor=none;" vertex="1" parent="0pmqVzATzi7T12V1UpiU-38">
          <mxGeometry x="5" y="54" width="10" height="44" as="geometry" />
        </mxCell>
      </root>
    </mxGraphModel>
  </diagram>
</mxfile>
